# xmcd
#
# Track frame offsets: 
#        150
#        34230
#        50969
#        74990
#        102534
#        129173
#        152432
#        176743
#
# Disc length: 3021 seconds
#
# Revision: 0
# Processed by: cddbd v1.5.2PL0 Copyright (c) Steve Scherf et al.
# Submitted via: ExactAudioCopy v0.99pb5
#
DISCID=760bcb08
DTITLE=Harold Melvin and The Blue Notes - Wake Up Everybody
DYEAR=1974
DGENRE=Soul
TTITLE0=Wake Up Everybody
TTITLE1=Keep On Loving You
TTITLE2=You Know How To Make Me Feel So Good
TTITLE3=Don't Leave Me This Way
TTITLE4=Tell The World How I Feel About 'Cha Baby
TTITLE5=To Be Free To Be Who We Are
TTITLE6=I'm Searching For A Love
TTITLE7=Don't Leave Me This Way (Tom Moulton Mix) (Bonus Track)
EXTD=
EXTT0=
EXTT1=
EXTT2=
EXTT3=
EXTT4=
EXTT5=
EXTT6=
EXTT7=
PLAYORDER=
